<svg width="44" height="27" viewBox="0 0 44 27" fill="none" xmlns="http://www.w3.org/2000/svg">
<path d="M41.5761 6.91371C41.4028 6.94469 41.224 6.92181 41.0643 6.84819C40.9046 6.77458 40.7718 6.65384 40.6842 6.50254C39.0925 4.56853 37.47 2.66497 35.9322 0.761421C35.5016 0.220812 34.8633 0 33.7253 0C25.5952 0 17.4752 0 9.36558 0C8.17374 0 7.52015 0.190355 7.05879 0.761421C5.52093 2.66497 3.94462 4.56853 2.39907 6.43401C2.1607 6.73096 1.93771 6.92132 1.16878 6.93655C0.176854 6.93655 -0.307573 7.48477 0.153786 7.89594C0.635988 8.1982 1.21145 8.31973 1.77623 8.23858H41.3916C42.2912 8.23858 42.9294 8.0863 42.9986 7.62183C43.0678 7.15736 42.4911 6.90609 41.5761 6.91371ZM40.3304 11.6193C39.2616 16.1878 38.2466 20.7563 37.2086 25.3249C36.8779 26.7868 36.5704 27.0305 35.071 27.0305H7.97382C6.43595 27.0305 6.12069 26.7944 5.77467 25.264C4.752 20.7411 3.7447 16.2107 2.69895 11.6954C2.47596 10.8122 2.65281 10.6599 3.5217 10.6599C8.43518 10.6599 13.3563 10.6599 18.2698 10.6599C18.7691 10.661 19.2492 10.8507 19.6122 11.1902C19.9751 11.5298 20.1935 11.9937 20.2229 12.4873C20.2229 12.8985 20.2613 13.165 20.269 13.2487C20.2838 13.2958 20.2838 13.3463 20.269 13.3934C20.2454 13.4277 20.2098 13.4521 20.1691 13.4619C19.9716 13.5417 19.7855 13.6467 19.6154 13.7741C19.194 14.0923 18.8409 14.4905 18.5768 14.9455C18.3127 15.4005 18.143 15.9031 18.0776 16.4239C17.8276 17.9458 18.0502 19.507 18.7158 20.901C18.9013 21.4204 19.194 21.8957 19.5753 22.2969C19.9566 22.698 20.418 23.0161 20.9303 23.231C21.1216 23.2921 21.3214 23.323 21.5224 23.3223V23.3223C21.7161 23.3261 21.9088 23.2951 22.0914 23.231C22.6007 23.0532 23.0522 22.7428 23.3986 22.3325C24.0423 21.5818 24.5004 20.6927 24.7365 19.736C25.1216 18.4865 25.1509 17.1559 24.8211 15.8909C24.709 15.3715 24.4782 14.8846 24.1462 14.4674C23.8143 14.0503 23.3902 13.7141 22.9065 13.4848C22.851 13.4673 22.8036 13.431 22.7726 13.3822C22.7416 13.3334 22.7291 13.2753 22.7373 13.2183L22.7834 12.5102C22.8052 12.0132 23.0195 11.5436 23.3818 11.1991C23.7441 10.8545 24.2265 10.6614 24.7288 10.6599C29.6654 10.6599 34.6019 10.6599 39.5384 10.6599C40.392 10.6599 40.515 10.835 40.3304 11.6193Z" fill="url(#paint0_linear_2_6)"/>
<defs>
<linearGradient id="paint0_linear_2_6" x1="4.05996" y1="22.6523" x2="42.1881" y2="2.94006" gradientUnits="userSpaceOnUse">
<stop stop-color="#FF7100"/>
<stop offset="0.05" stop-color="#FF6B00"/>
<stop offset="0.26" stop-color="#FF5600"/>
<stop offset="0.4" stop-color="#FF4E00"/>
</linearGradient>
</defs>
</svg>
