<svg width="158" height="27" viewBox="0 0 158 27" fill="none" xmlns="http://www.w3.org/2000/svg">
<g clip-path="url(#clip0_2_3)">
<path d="M41.5761 6.91371C41.4028 6.94469 41.224 6.92181 41.0643 6.84819C40.9046 6.77458 40.7718 6.65384 40.6842 6.50254C39.0925 4.56853 37.47 2.66497 35.9322 0.761421C35.5016 0.220812 34.8633 0 33.7253 0C25.5952 0 17.4752 0 9.36558 0C8.17374 0 7.52015 0.190355 7.05879 0.761421C5.52093 2.66497 3.94462 4.56853 2.39907 6.43401C2.1607 6.73096 1.93771 6.92132 1.16878 6.93655C0.176854 6.93655 -0.307573 7.48477 0.153786 7.89594C0.635988 8.1982 1.21145 8.31973 1.77623 8.23858H41.3916C42.2912 8.23858 42.9294 8.0863 42.9986 7.62183C43.0678 7.15736 42.4911 6.90609 41.5761 6.91371ZM40.3304 11.6193C39.2616 16.1878 38.2466 20.7563 37.2086 25.3249C36.8779 26.7868 36.5704 27.0305 35.071 27.0305H7.97382C6.43595 27.0305 6.12069 26.7944 5.77467 25.264C4.752 20.7411 3.7447 16.2107 2.69895 11.6954C2.47596 10.8122 2.65281 10.6599 3.5217 10.6599C8.43518 10.6599 13.3563 10.6599 18.2698 10.6599C18.7691 10.661 19.2492 10.8507 19.6122 11.1902C19.9751 11.5298 20.1935 11.9937 20.2229 12.4873C20.2229 12.8985 20.2613 13.165 20.269 13.2487C20.2838 13.2958 20.2838 13.3463 20.269 13.3934C20.2454 13.4277 20.2098 13.4521 20.1691 13.4619C19.9716 13.5417 19.7855 13.6467 19.6154 13.7741C19.194 14.0923 18.8409 14.4905 18.5768 14.9455C18.3127 15.4005 18.143 15.9031 18.0776 16.4239C17.8276 17.9458 18.0502 19.507 18.7158 20.901C18.9013 21.4204 19.194 21.8957 19.5753 22.2969C19.9566 22.698 20.418 23.0161 20.9303 23.231C21.1216 23.2921 21.3214 23.323 21.5224 23.3223V23.3223C21.7161 23.3261 21.9088 23.2951 22.0914 23.231C22.6007 23.0532 23.0522 22.7428 23.3986 22.3325C24.0423 21.5818 24.5004 20.6927 24.7365 19.736C25.1216 18.4865 25.1509 17.1559 24.8211 15.8909C24.709 15.3715 24.4782 14.8846 24.1462 14.4674C23.8143 14.0503 23.3902 13.7141 22.9065 13.4848C22.851 13.4673 22.8036 13.431 22.7726 13.3822C22.7416 13.3334 22.7291 13.2753 22.7373 13.2183L22.7834 12.5102C22.8052 12.0132 23.0195 11.5436 23.3818 11.1991C23.7441 10.8545 24.2265 10.6614 24.7288 10.6599C29.6654 10.6599 34.6019 10.6599 39.5384 10.6599C40.392 10.6599 40.515 10.835 40.3304 11.6193Z" fill="url(#paint0_linear_2_3)"/>
<path d="M63.6521 12.2513H55.8936V15.9289H62.045V18.9746H55.8936V25.3934H51.8644V8.99999H63.6521V12.2513ZM71.649 25.6675C70.6441 25.7123 69.6439 25.5081 68.7389 25.0733C67.8339 24.6385 67.0528 23.987 66.4664 23.1777C65.2169 21.4178 64.575 19.3053 64.6363 17.1548C64.5597 15.0048 65.2151 12.8916 66.4971 11.1548C67.1157 10.3589 67.9205 9.72395 68.8422 9.30477C69.7638 8.88558 70.7746 8.69475 71.7874 8.74873C72.8095 8.69376 73.8286 8.90109 74.746 9.35064C75.6634 9.80019 76.448 10.4767 77.0238 11.3147C78.2059 13.0488 78.8207 15.101 78.7847 17.1929C78.8544 19.3433 78.2146 21.4576 76.9623 23.2157C76.3526 24.0299 75.5473 24.6805 74.6195 25.1086C73.6917 25.5368 72.6707 25.7288 71.649 25.6675ZM71.7566 11.8858C69.7267 11.8858 68.6809 13.6599 68.6809 17.2157C68.6809 20.7716 69.7036 22.5457 71.7566 22.5457C73.8097 22.5457 74.717 20.7716 74.717 17.2157C74.717 13.6599 73.7328 11.8858 71.7566 11.8858V11.8858ZM87.5505 25.6675C86.5454 25.7137 85.5447 25.5101 84.6394 25.0752C83.7342 24.6403 82.9533 23.988 82.3679 23.1777C81.1128 21.4205 80.4704 19.3061 80.5378 17.1548C80.459 15.0057 81.1116 12.8926 82.391 11.1548C83.0072 10.3622 83.8083 9.72924 84.7257 9.3102C85.643 8.89117 86.6492 8.69851 87.6581 8.74873C88.6803 8.69301 89.6997 8.90001 90.6172 9.34963C91.5347 9.79925 92.3193 10.4762 92.8946 11.3147C94.0789 13.0481 94.6964 15.1003 94.6631 17.1929C94.7328 19.3433 94.093 21.4576 92.8407 23.2157C92.2332 24.0265 91.4317 24.6751 90.5082 25.103C89.5848 25.531 88.5684 25.725 87.5505 25.6675V25.6675ZM87.6581 11.8858C85.6077 11.8858 84.5824 13.6624 84.5824 17.2157C84.5824 20.769 85.6077 22.5457 87.6581 22.5457C89.6266 22.5457 90.6108 20.769 90.6108 17.2157C90.6108 13.7056 89.6266 11.8858 87.6581 11.8858V11.8858ZM97.2236 8.99999H102.268C103.853 8.90014 105.439 9.19324 106.881 9.85279C107.997 10.5121 108.931 11.4325 109.603 12.533C110.45 13.9302 110.867 15.5417 110.803 17.17C110.873 19.3231 110.124 21.4237 108.704 23.0558C107.976 23.8497 107.079 24.4733 106.077 24.8815C105.076 25.2897 103.995 25.4724 102.914 25.4162H97.216L97.2236 8.99999ZM101.068 12.0457V22.3249H102.668C103.285 22.3637 103.902 22.2388 104.455 21.9631C105.008 21.6874 105.476 21.2709 105.813 20.7563C106.518 19.6564 106.877 18.3735 106.843 17.0711C106.853 16.1211 106.654 15.1804 106.259 14.3147C105.968 13.5861 105.458 12.9639 104.798 12.533C104.158 12.1775 103.432 12.0012 102.698 12.0228L101.068 12.0457ZM113.371 8.99999H121.061C122.126 8.9404 123.192 9.1146 124.182 9.51015C124.873 9.8374 125.468 10.3325 125.912 10.9492C126.379 11.6195 126.616 12.42 126.589 13.2335C126.589 15.0558 125.595 16.269 123.606 16.8731C124.625 17.0542 125.543 17.5953 126.189 18.3959C126.748 19.1081 127.051 19.9841 127.05 20.8858C127.054 21.4842 126.93 22.0767 126.688 22.6249C126.445 23.1732 126.09 23.6649 125.643 24.0685C124.705 24.9568 123.167 25.4035 121.03 25.4086H113.34L113.371 8.99999ZM117.216 11.901V15.4949H120.153C121.23 15.4949 121.906 15.2893 122.191 14.8629C122.445 14.5107 122.589 14.0925 122.606 13.6599C122.616 13.2714 122.494 12.8908 122.26 12.5787C122.073 12.3124 121.803 12.1144 121.491 12.0152C120.956 11.917 120.412 11.8786 119.869 11.901H117.216ZM117.216 18.4188V22.3782H120.199C120.957 22.4459 121.716 22.258 122.352 21.8452C122.548 21.6622 122.704 21.4416 122.811 21.1967C122.918 20.9519 122.973 20.688 122.973 20.4213C122.973 20.1546 122.918 19.8908 122.811 19.6459C122.704 19.4011 122.548 19.1804 122.352 18.9975C121.783 18.5573 121.065 18.3502 120.345 18.4188H117.216ZM135.762 25.6675C134.758 25.7123 133.757 25.5081 132.852 25.0733C131.947 24.6385 131.166 23.987 130.58 23.1777C129.33 21.4178 128.689 19.3053 128.75 17.1548C128.673 15.0048 129.329 12.8916 130.611 11.1548C131.229 10.3589 132.034 9.72395 132.956 9.30477C133.877 8.88558 134.888 8.69475 135.901 8.74873C136.923 8.69301 137.942 8.90001 138.86 9.34963C139.777 9.79925 140.562 10.4762 141.137 11.3147C142.319 13.0488 142.934 15.101 142.898 17.1929C142.97 19.3424 142.333 21.4566 141.083 23.2157C140.471 24.0273 139.666 24.6761 138.738 25.1039C137.811 25.5318 136.791 25.7254 135.77 25.6675H135.762ZM135.878 11.8858C133.827 11.8858 132.802 13.6624 132.802 17.2157C132.802 20.769 133.827 22.5457 135.878 22.5457C137.846 22.5457 138.831 20.769 138.831 17.2157C138.838 13.7056 137.854 11.8858 135.886 11.8858H135.878ZM157.408 8.99999L152.879 16.6142L158 25.4086H153.509L150.18 19.4543L146.866 25.4162H143.175L148.311 16.6675L143.79 8.99999H148.311L150.995 13.9873L153.786 8.99999H157.408Z" fill="url(#paint1_linear_2_3)"/>
</g>
<defs>
<linearGradient id="paint0_linear_2_3" x1="4.05996" y1="22.6523" x2="42.1881" y2="2.94006" gradientUnits="userSpaceOnUse">
<stop stop-color="#FF7100"/>
<stop offset="0.05" stop-color="#FF6B00"/>
<stop offset="0.26" stop-color="#FF5600"/>
<stop offset="0.4" stop-color="#FF4E00"/>
</linearGradient>
<linearGradient id="paint1_linear_2_3" x1="51.8644" y1="17.2081" x2="158" y2="17.2081" gradientUnits="userSpaceOnUse">
<stop stop-color="#FF7100"/>
<stop offset="0.05" stop-color="#FF6B00"/>
<stop offset="0.26" stop-color="#FF5600"/>
<stop offset="0.4" stop-color="#FF4E00"/>
</linearGradient>
<clipPath id="clip0_2_3">
<rect width="158" height="27" fill="white"/>
</clipPath>
</defs>
</svg>
