<svg width="39" height="39" viewBox="0 0 39 39" fill="none" xmlns="http://www.w3.org/2000/svg">
<path d="M19.5 0.359375C15.7144 0.359375 12.0137 1.48195 8.86605 3.58515C5.71839 5.68835 3.26509 8.67771 1.81638 12.1752C0.367668 15.6727 -0.0113798 19.5212 0.727165 23.2342C1.46571 26.9471 3.28868 30.3576 5.96554 33.0345C8.64241 35.7113 12.0529 37.5343 15.7659 38.2728C19.4788 39.0114 23.3273 38.6323 26.8248 37.1836C30.3223 35.7349 33.3117 33.2816 35.4149 30.134C37.5181 26.9863 38.6406 23.2857 38.6406 19.5C38.6305 14.4267 36.6107 9.56408 33.0233 5.97671C29.4359 2.38934 24.5733 0.369491 19.5 0.359375ZM19.5 37.1094C16.0172 37.1094 12.6126 36.0766 9.71676 34.1417C6.82092 32.2067 4.56388 29.4565 3.23107 26.2388C1.89826 23.0211 1.54953 19.4805 2.22899 16.0646C2.90845 12.6487 4.58559 9.51101 7.0483 7.04829C9.51102 4.58558 12.6487 2.90845 16.0646 2.22898C19.4805 1.54952 23.0211 1.89825 26.2388 3.23106C29.4565 4.56387 32.2067 6.82091 34.1417 9.71676C36.0766 12.6126 37.1094 16.0172 37.1094 19.5C37.1043 24.1687 35.2474 28.6448 31.9461 31.9461C28.6448 35.2474 24.1688 37.1043 19.5 37.1094ZM26.1609 13.9109L20.591 19.5L26.1609 25.0891C26.2327 25.1587 26.2898 25.242 26.3288 25.334C26.3677 25.4261 26.3878 25.525 26.3878 25.625C26.3878 25.725 26.3677 25.8239 26.3288 25.916C26.2898 26.0081 26.2327 26.0914 26.1609 26.1609C26.0914 26.2327 26.0081 26.2898 25.916 26.3287C25.8239 26.3677 25.725 26.3878 25.625 26.3878C25.525 26.3878 25.4261 26.3677 25.334 26.3287C25.242 26.2898 25.1587 26.2327 25.0891 26.1609L19.5 20.591L13.9109 26.1609C13.8414 26.2327 13.7581 26.2898 13.666 26.3287C13.5739 26.3677 13.475 26.3878 13.375 26.3878C13.275 26.3878 13.1761 26.3677 13.084 26.3287C12.992 26.2898 12.9087 26.2327 12.8391 26.1609C12.7673 26.0914 12.7102 26.0081 12.6713 25.916C12.6323 25.8239 12.6122 25.725 12.6122 25.625C12.6122 25.525 12.6323 25.4261 12.6713 25.334C12.7102 25.242 12.7673 25.1587 12.8391 25.0891L18.409 19.5L12.8391 13.9109C12.7285 13.7635 12.6748 13.5811 12.6879 13.3973C12.7009 13.2135 12.7799 13.0405 12.9102 12.9102C13.0405 12.7799 13.2135 12.7009 13.3973 12.6879C13.5811 12.6748 13.7635 12.7285 13.9109 12.8391L19.5 18.409L25.0891 12.8391C25.1549 12.7513 25.2388 12.6787 25.3351 12.6262C25.4314 12.5737 25.5379 12.5425 25.6473 12.5347C25.7567 12.527 25.8665 12.5428 25.9693 12.5811C26.0721 12.6195 26.1654 12.6795 26.243 12.7571C26.3205 12.8346 26.3805 12.9279 26.4189 13.0307C26.4572 13.1335 26.473 13.2433 26.4653 13.3527C26.4575 13.4621 26.4263 13.5686 26.3738 13.6649C26.3213 13.7612 26.2487 13.8451 26.1609 13.9109Z" fill="#6A6A6A"/>
</svg>
