<svg width="22" height="22" viewBox="0 0 22 22" fill="none" xmlns="http://www.w3.org/2000/svg">
<path d="M15.5833 5.50001H20.1666V7.33334H18.3333V19.25C18.3333 19.4931 18.2367 19.7263 18.0648 19.8982C17.8929 20.0701 17.6597 20.1667 17.4166 20.1667H4.58325C4.34014 20.1667 4.10698 20.0701 3.93507 19.8982C3.76316 19.7263 3.66659 19.4931 3.66659 19.25V7.33334H1.83325V5.50001H6.41659V2.75001C6.41659 2.5069 6.51316 2.27374 6.68507 2.10183C6.85698 1.92992 7.09014 1.83334 7.33325 1.83334H14.6666C14.9097 1.83334 15.1429 1.92992 15.3148 2.10183C15.4867 2.27374 15.5833 2.5069 15.5833 2.75001V5.50001ZM16.4999 7.33334H5.49992V18.3333H16.4999V7.33334ZM8.24992 10.0833H10.0833V15.5833H8.24992V10.0833ZM11.9166 10.0833H13.7499V15.5833H11.9166V10.0833ZM8.24992 3.66668V5.50001H13.7499V3.66668H8.24992Z" fill="#7F7F7F"/>
</svg>
