<svg width="18" height="16" viewBox="0 0 18 16" fill="none" xmlns="http://www.w3.org/2000/svg">
<g opacity="0.7">
<path d="M1 8H17M1 13.538H17M1 2.462H17" stroke="#4A4A4A" stroke-width="1.5" stroke-linecap="round"/>
<path d="M4.88501 5C6.26572 5 7.38501 3.88071 7.38501 2.5C7.38501 1.11929 6.26572 0 4.88501 0C3.5043 0 2.38501 1.11929 2.38501 2.5C2.38501 3.88071 3.5043 5 4.88501 5Z" fill="#4A4A4A"/>
<path d="M12.7991 10.538C14.1798 10.538 15.2991 9.41871 15.2991 8.038C15.2991 6.65729 14.1798 5.538 12.7991 5.538C11.4184 5.538 10.2991 6.65729 10.2991 8.038C10.2991 9.41871 11.4184 10.538 12.7991 10.538Z" fill="#4A4A4A"/>
<path d="M8.5 15.538C9.88071 15.538 11 14.4187 11 13.038C11 11.6573 9.88071 10.538 8.5 10.538C7.11929 10.538 6 11.6573 6 13.038C6 14.4187 7.11929 15.538 8.5 15.538Z" fill="#4A4A4A"/>
</g>
</svg>
