<svg width="20" height="20" viewBox="0 0 20 20" fill="none" xmlns="http://www.w3.org/2000/svg">
<path d="M10 9.99999C10.4584 9.99999 10.8509 9.83665 11.1775 9.50999C11.5037 9.18388 11.6667 8.79166 11.6667 8.33332C11.6667 7.87499 11.5037 7.48249 11.1775 7.15582C10.8509 6.82971 10.4584 6.66666 10 6.66666C9.54171 6.66666 9.14948 6.82971 8.82337 7.15582C8.49671 7.48249 8.33337 7.87499 8.33337 8.33332C8.33337 8.79166 8.49671 9.18388 8.82337 9.50999C9.14948 9.83665 9.54171 9.99999 10 9.99999ZM10 18.0208C9.88893 18.0208 9.77782 18 9.66671 17.9583C9.5556 17.9167 9.45837 17.8611 9.37504 17.7917C7.34726 16 5.83337 14.3369 4.83337 12.8025C3.83337 11.2675 3.33337 9.83332 3.33337 8.49999C3.33337 6.41666 4.00365 4.75693 5.34421 3.52082C6.68421 2.28471 8.23615 1.66666 10 1.66666C11.7639 1.66666 13.3159 2.28471 14.6559 3.52082C15.9964 4.75693 16.6667 6.41666 16.6667 8.49999C16.6667 9.83332 16.1667 11.2675 15.1667 12.8025C14.1667 14.3369 12.6528 16 10.625 17.7917C10.5417 17.8611 10.4445 17.9167 10.3334 17.9583C10.2223 18 10.1112 18.0208 10 18.0208Z" fill="#F24E1E"/>
</svg>
